<svg width="24" height="24" viewBox="0 0 24 24" fill="none" xmlns="http://www.w3.org/2000/svg">
<path fill-rule="evenodd" clip-rule="evenodd" d="M16.712 13.8056C17.5405 12.7721 18.0347 11.4639 18.0347 10.0348C18.0347 6.70186 15.3329 4 12 4C8.66704 4 5.96518 6.70186 5.96518 10.0348C5.96518 11.4637 6.45934 12.7718 7.28771 13.8053V13.8053L7.29367 13.8127C7.46905 14.0312 7.63142 14.2613 7.80011 14.4849C8.0931 14.8734 8.50625 15.4189 8.98628 16.0462C9.88083 17.2153 10.9983 18.6565 12.0007 19.8938C13.0062 18.6539 14.1262 17.2104 15.0225 16.0398C15.5034 15.4117 15.9172 14.8657 16.2106 14.4769C16.3785 14.2545 16.5377 14.0229 16.712 13.8056ZM18.2754 15.0589C18.2754 15.0589 18.2737 15.0611 18.2725 15.0627C18.2213 15.1312 17.751 15.7595 17.0696 16.6544C16.0587 17.9819 14.5831 19.8961 13.3214 21.4393C12.6313 22.2834 11.3689 22.2831 10.6791 21.4386C8.52279 18.7985 5.73394 15.0646 5.73394 15.0646L5.72744 15.0565C4.62475 13.681 3.96518 11.9349 3.96518 10.0348C3.96518 5.5973 7.56247 2 12 2C16.4374 2 20.0347 5.5973 20.0347 10.0348C20.0347 11.217 19.7794 12.3396 19.3209 13.3505C19.0435 13.962 18.6917 14.5326 18.2771 15.0507L18.2742 15.0543L18.2725 15.0565H18.2771L18.2754 15.0589Z" fill="currentColor"/>
<path fill-rule="evenodd" clip-rule="evenodd" d="M12 11C12.5523 11 13 10.5523 13 10C13 9.44771 12.5523 9 12 9C11.4477 9 11 9.44771 11 10C11 10.5523 11.4477 11 12 11ZM15 10C15 11.6569 13.6569 13 12 13C10.3431 13 9 11.6569 9 10C9 8.34315 10.3431 7 12 7C13.6569 7 15 8.34315 15 10Z" fill="currentColor"/>
</svg>
